<?xml version="1.0" encoding="utf-8"?>
<!-- Generator: Adobe Illustrator 24.1.0, SVG Export Plug-In . SVG Version: 6.00 Build 0)  -->
<svg version="1.1" id="fe57aacd-d31e-4d0a-860d-7f48427f73a2"
	 xmlns="http://www.w3.org/2000/svg" xmlns:xlink="http://www.w3.org/1999/xlink" x="0px" y="0px" viewBox="0 0 286.2 101"
	 style="enable-background:new 0 0 286.2 101;" xml:space="preserve">
<style type="text/css">
	.st0{opacity:0.5;}
	.st1{fill:#71B429;}
	.st2{fill:#01ABFF;}
	.st3{fill:#ED2226;}
	.st4{fill:#FFFFFF;}
	.st5{fill:#5E6981;}
	.st6{fill:#3D4351;}
</style>
<g class="st0">
	<path class="st1" d="M53.1,46.3v13.2c0,1.4-1.2,2.6-2.6,2.6H3.1c-1.4,0-2.6-1.2-2.6-2.6V46.3"/>
</g>
<g class="st0">
	<path class="st2" d="M50.5,62.7h-3.2v-1.1h3.2V62.7z M44.8,62.7h-3.2v-1.1h3.2V62.7z M39,62.7h-3.1v-1.1H39L39,62.7z M33.2,62.7H30
		v-1.1h3.2L33.2,62.7z M27.4,62.7h-3.1v-1.1h3.2L27.4,62.7z M21.6,62.7h-3.1v-1.1h3.2L21.6,62.7z M15.8,62.7h-3.1v-1.1h3.2
		L15.8,62.7z M10,62.7H6.9v-1.1H10L10,62.7z M4.2,62.7H3.1c-0.8,0-1.6-0.3-2.2-0.9L1.7,61c0.4,0.4,0.9,0.6,1.5,0.6h1.1L4.2,62.7z
		 M50.8,62.7l-0.1-1c0.9-0.1,1.6-0.7,1.8-1.5l1,0.3C53.2,61.6,52.1,62.5,50.8,62.7L50.8,62.7z M1,58.9H0v-3.1h1V58.9z M53.7,57.6h-1
		v-3.2h1V57.6z M1,53.2H0V50h1V53.2z M53.7,51.8h-1v-3.2h1V51.8z M1,47.4H0v-3.2h1V47.4z M53.7,46h-1v-3.2h1V46z M1,41.6H0v-3.2h1
		V41.6z M53.7,40.2h-1v-3.2h1V40.2z M1,35.8H0v-3.2h1V35.8z M53.7,34.4h-1v-3.2h1V34.4z M1,30H0v-3.1h1V30z M53.7,28.6h-1v-3.1h1
		V28.6z M1,24.2H0v-3.2h1V24.2z M53.7,22.8h-1v-3.2h1V22.8z M1,18.4H0v-3.2h1V18.4z M53.7,17.1h-1v-3.1h1V17.1z M1,12.6H0v-0.5
		C0,11,0.6,10,1.5,9.5L2,10.4c-0.6,0.4-1,1-1,1.8L1,12.6z M52.5,11.5c-0.3-0.8-1-1.4-1.9-1.4V9c1.3,0,2.4,0.9,2.9,2.1L52.5,11.5z
		 M48,10.1h-3.2V9H48V10.1z M42.2,10.1H39V9h3.2L42.2,10.1z M36.4,10.1h-3.2V9h3.2L36.4,10.1z M30.6,10.1h-3.2V9h3.2L30.6,10.1z
		 M24.8,10.1h-3.2V9h3.2L24.8,10.1z M19,10.1h-3.2V9H19L19,10.1z M13.3,10.1h-3.2V9h3.2L13.3,10.1z M7.5,10.1H4.3V9h3.1L7.5,10.1z"
		/>
</g>
<g class="st0">
	<path class="st2" d="M13.7,57.1h-2.1v-0.5h2.1V57.1z M10,57.1H7.9v-0.5H10V57.1z M6.6,56.9H6.1v-2.1h0.5V56.9z M14,55.8h-0.5v-2.1
		H14V55.8z M6.6,53.2H6.1v-2.1h0.5V53.2z M14,52.2h-0.5V50H14V52.2z M6.6,49.5H6.1v-2.1h0.5V49.5z M13.9,48.5h-0.5v-2.1H14
		L13.9,48.5z M6.6,45.8H6.1v-2.1h0.5V45.8z M13.9,44.8h-0.5v-2.1H14L13.9,44.8z M6.6,42.2H6.1V40h0.5V42.2z M13.9,41.2h-0.5V39H14
		L13.9,41.2z M6.6,38.5H6.1v-2.1h0.5V38.5z M14,37.4h-0.5v-2.1H14V37.4z M6.6,34.8H6.1v-2.1h0.5V34.8z M14,33.7h-0.5v-2.1H14V33.7z
		 M6.6,31.1H6.1V29h0.5V31.1z M13.9,30h-0.5v-2.1h0.5V30z M6.6,27.4H6.1v-2.1h0.5V27.4z M14,26.4h-0.5v-2.1H14V26.4z M6.6,23.7H6.1
		v-2.1h0.5V23.7z M14,22.7h-0.5v-2.1H14V22.7z M6.6,20H6.1v-2.1h0.5V20z M13.9,19h-0.5v-2.1h0.5V19z M6.6,16.4H6.1v-1.8h0.8V15H6.6
		V16.4z M13.9,15.4h-0.5V15h-1.3v-0.5h1.8L13.9,15.4z M10.5,15H8.4v-0.5h2.1V15z"/>
</g>
<g class="st0">
	<path class="st2" d="M24.7,57.1h-2.1v-0.5h2.1V57.1z M21,57.1h-2v-0.5h2L21,57.1z M17.6,56.9h-0.5v-2.1h0.5L17.6,56.9z M25,55.8
		h-0.5v-2.1H25V55.8z M17.6,53.2h-0.5v-2.1h0.5L17.6,53.2z M25,52.1h-0.5V50H25V52.1z M17.6,49.5h-0.5v-2.1h0.5V49.5z M25,48.5h-0.5
		v-2.1H25V48.5z M17.6,45.9h-0.5v-2.1h0.5V45.9z M25,44.9h-0.5v-2.1H25V44.9z M17.6,42.2h-0.5V40h0.5V42.2z M25,41.1h-0.5V39H25
		V41.1z M17.6,38.5h-0.5v-2.1h0.5V38.5z M25,37.4h-0.5v-2.1H25V37.4z M17.6,34.8h-0.5v-2.1h0.5V34.8z M25,33.7h-0.5v-2.1H25V33.7z
		 M17.6,31.1h-0.5V29h0.5L17.6,31.1z M25,30h-0.5v-2.1H25V30z M17.6,27.4h-0.5v-2.1h0.5V27.4z M25,26.4h-0.5v-2.1H25V26.4z
		 M17.6,23.7h-0.5v-2.1h0.5V23.7z M25,22.7h-0.5v-2.1H25V22.7z M17.6,20h-0.5v-2.1h0.5L17.6,20z M25,19h-0.5v-2.1H25V19z M17.6,16.4
		h-0.5v-1.8h0.8V15h-0.3V16.4z M25,15.3h-0.5V15h-1.3v-0.5H25V15.3z M21.6,15h-2.1v-0.5h2.1V15z"/>
</g>
<g class="st0">
	<path class="st2" d="M35.8,57.1h-2.1v-0.5h2.1V57.1z M32.1,57.1H30v-0.5h2.1V57.1z M28.1,56.9v-2.1h0.5v2.1H28.1z M36,55.8h-0.5
		v-2.1H36V55.8z M28.7,53.2h-0.5v-2.1h0.5V53.2z M36,52.1h-0.5V50H36V52.1z M28.6,49.5h-0.5v-2.1h0.5V49.5z M36,48.5h-0.5v-2.1H36
		V48.5z M28.6,45.9h-0.5v-2.1h0.5V45.9z M36,44.9h-0.5v-2.1H36V44.9z M28.6,42.2h-0.5V40h0.5V42.2z M36,41.1h-0.5V39H36V41.1z
		 M28.6,38.5h-0.5v-2.1h0.5V38.5z M36,37.4h-0.5v-2.1H36V37.4z M28.6,34.8h-0.5v-2.1h0.5V34.8z M36,33.7h-0.5v-2.1H36V33.7z
		 M28.7,31.1h-0.5V29h0.5V31.1z M36,30h-0.5v-2.1H36V30z M28.6,27.4h-0.5v-2.1h0.5V27.4z M36,26.4h-0.5v-2.1H36V26.4z M28.6,23.7
		h-0.5v-2.1h0.5V23.7z M36,22.7h-0.5v-2.1H36V22.7z M28.7,20h-0.5v-2.1h0.5V20z M36,19h-0.5v-2.1H36V19z M28.6,16.4h-0.5v-1.8h0.8
		V15h-0.3V16.4z M36,15.3h-0.5V15h-1.3v-0.5H36V15.3z M32.6,15h-2.1v-0.5h2.1V15z"/>
</g>
<g class="st0">
	<path class="st2" d="M46.8,57.1h-2.1v-0.5h2.1V57.1z M43.2,57.1H41v-0.5h2.1L43.2,57.1z M39.7,56.9h-0.5v-2.1h0.5L39.7,56.9z
		 M47.1,55.8h-0.5v-2.1h0.5V55.8z M39.7,53.2h-0.5v-2.1h0.5V53.2z M47.1,52.2h-0.5V50h0.5V52.2z M39.7,49.5h-0.5v-2.1h0.5V49.5z
		 M47.1,48.5h-0.5v-2.1h0.5V48.5z M39.7,45.8h-0.5v-2.1h0.5V45.8z M47.1,44.8h-0.5v-2.1h0.5V44.8z M39.7,42.2h-0.5V40h0.5V42.2z
		 M47.1,41.2h-0.5V39h0.5V41.2z M39.7,38.5h-0.5v-2.1h0.5V38.5z M47.1,37.5h-0.5v-2.2h0.5V37.5z M39.7,34.8h-0.5v-2.1h0.5V34.8z
		 M47.1,33.8h-0.5v-2.1h0.5V33.8z M39.7,31.1h-0.5V29h0.5V31.1z M47.1,30h-0.5v-2.1h0.5V30z M39.7,27.4h-0.5v-2.1h0.5L39.7,27.4z
		 M47.1,26.3h-0.5v-2.1h0.5V26.3z M39.7,23.7h-0.5v-2.1h0.5L39.7,23.7z M47.1,22.6h-0.5v-2.1h0.5V22.6z M39.7,20h-0.5v-2.1h0.5V20z
		 M47.1,19h-0.5v-2.1h0.5V19z M39.7,16.4h-0.5v-1.8H40V15h-0.3L39.7,16.4z M47.1,15.3h-0.5V15h-1.3v-0.5h1.8V15.3z M43.7,15h-2.1
		v-0.5h2.1V15z"/>
</g>
<path class="st3" d="M53.3,0c-4,0-7.2,3.2-7.2,7.2s3.2,7.2,7.2,7.2s7.2-3.2,7.2-7.2c0,0,0,0,0,0l0,0C60.5,3.2,57.3,0,53.3,0z"/>
<path class="st4" d="M58.2,8.4c0,0.4-0.3,0.8-0.7,0.9c-1.4,0.2-2.7,0.3-4.1,0.2c-1.4,0-2.8-0.1-4.1-0.2c-0.4-0.1-0.8-0.5-0.7-0.9
	V5.7c0-0.4,0.3-0.8,0.7-0.9c0.4-0.1,0.9-0.1,1.3-0.1c0.2,0,0.3,0.1,0.3,0.3c0,0,0,0,0,0v2h2.5h2.5V5c0-0.2,0.1-0.3,0.3-0.3
	c0,0,0,0,0,0l0,0c0.4,0,0.9,0,1.3,0.1c0.4,0.1,0.7,0.5,0.7,0.9L58.2,8.4L58.2,8.4z"/>
<g class="st0">
	<path class="st1" d="M278.9,46.3v13.2c0,1.4-1.2,2.6-2.6,2.6h-47.4c-1.4,0-2.6-1.2-2.6-2.6V46.3"/>
</g>
<g class="st0">
	<path class="st2" d="M276.3,62.7h-3.2v-1.1h3.2V62.7z M270.5,62.7h-3.2v-1.1h3.2V62.7z M264.7,62.7h-3.2v-1.1h3.2V62.7z
		 M258.9,62.7h-3.2v-1.1h3.2V62.7z M253.1,62.7H250v-1.1h3.2L253.1,62.7z M247.3,62.7h-3.2v-1.1h3.2V62.7z M241.5,62.7h-3.2v-1.1
		h3.2V62.7z M235.7,62.7h-3.2v-1.1h3.2V62.7z M229.9,62.7h-1.1c-0.8,0-1.6-0.3-2.2-0.9l0.8-0.7c0.4,0.4,0.9,0.6,1.5,0.6h1.2
		L229.9,62.7z M276.6,62.7l-0.1-1c0.9-0.1,1.6-0.7,1.8-1.5l1,0.3C278.9,61.6,277.8,62.5,276.6,62.7L276.6,62.7z M226.8,59h-1.1v-3.2
		h1.1V59z M279.4,57.6h-1v-3.2h1V57.6z M226.8,53.2h-1.1V50h1.1V53.2z M279.4,51.9h-1v-3.2h1V51.9z M226.8,47.4h-1.1v-3.2h1.1V47.4z
		 M279.4,46h-1v-3.2h1V46z M226.8,41.6h-1.1v-3.2h1.1V41.6z M279.4,40.2h-1v-3.2h1V40.2z M226.8,35.8h-1.1v-3.2h1.1V35.8z
		 M279.4,34.4h-1v-3.2h1V34.4z M226.8,30h-1.1v-3.1h1.1V30z M279.4,28.6h-1v-3.2h1V28.6z M226.8,24.2h-1.1v-3.2h1.1V24.2z
		 M279.4,22.9h-1v-3.2h1V22.9z M226.8,18.4h-1.1v-3.2h1.1V18.4z M279.4,17.1h-1v-3.2h1V17.1z M226.8,12.7h-1.1v-0.5
		c0-1.1,0.6-2.1,1.5-2.7l0.6,0.9c-0.6,0.4-1,1-1,1.8L226.8,12.7z M278.2,11.5c-0.3-0.8-1-1.4-1.9-1.4V9c1.3,0,2.4,0.9,2.9,2.1
		L278.2,11.5z M273.7,10.1h-3.2V9h3.2V10.1z M267.9,10.1h-3.2V9h3.2V10.1z M262.1,10.1H259V9h3.2L262.1,10.1z M256.3,10.1h-3.1V9
		h3.2L256.3,10.1z M250.6,10.1h-3.2V9h3.2V10.1z M244.8,10.1h-3.2V9h3.2V10.1z M239,10.1h-3.2V9h3.2L239,10.1z M233.2,10.1H230V9
		h3.2L233.2,10.1z"/>
</g>
<g class="st0">
	<path class="st2" d="M239.4,57.1h-2.1v-0.5h2.1V57.1z M235.7,57.1h-2.1v-0.5h2.1V57.1z M232.3,56.9h-0.5v-2.1h0.5V56.9z
		 M239.7,55.8h-0.5v-2.1h0.5V55.8z M232.3,53.2h-0.5v-2.1h0.5V53.2z M239.7,52.2h-0.5V50h0.5V52.2z M232.3,49.5h-0.5v-2.1h0.5V49.5z
		 M239.7,48.5h-0.5v-2.1h0.5V48.5z M232.3,45.8h-0.5v-2.1h0.5V45.8z M239.7,44.8h-0.5v-2.1h0.5V44.8z M232.3,42.2h-0.5V40h0.5V42.2z
		 M239.7,41.2h-0.5V39h0.5V41.2z M232.3,38.5h-0.5v-2.1h0.5V38.5z M239.7,37.5h-0.5v-2.2h0.5V37.5z M232.3,34.8h-0.5v-2.1h0.5V34.8z
		 M239.7,33.8h-0.5v-2.1h0.5V33.8z M232.3,31.1h-0.5V29h0.5V31.1z M239.7,30h-0.5v-2.1h0.5V30z M232.3,27.4h-0.5v-2.1h0.5V27.4z
		 M239.7,26.3h-0.5v-2.1h0.5V26.3z M232.3,23.7h-0.5v-2.1h0.5V23.7z M239.7,22.6h-0.5v-2.1h0.5V22.6z M232.3,20h-0.5v-2.1h0.5V20z
		 M239.7,19h-0.5v-2.1h0.5V19z M232.3,16.4h-0.5v-1.8h0.8V15h-0.3V16.4z M239.7,15.3h-0.5V15h-1.3v-0.5h1.8L239.7,15.3z M236.2,15
		h-2.1v-0.5h2.1V15z"/>
</g>
<g class="st0">
	<path class="st2" d="M250.5,57.1h-2.1v-0.5h2.1V57.1z M246.8,57.1h-2.1v-0.5h2.1V57.1z M242.8,56.9v-2.1h0.5v2.1H242.8z
		 M250.7,55.8h-0.5v-2.1h0.5V55.8z M243.4,53.2h-0.5v-2.1h0.5V53.2z M250.7,52.2h-0.5V50h0.5V52.2z M243.4,49.5h-0.5v-2.1h0.5V49.5z
		 M250.7,48.5h-0.5v-2.1h0.5V48.5z M243.4,45.8h-0.5v-2.1h0.5V45.8z M250.7,44.8h-0.5v-2.1h0.5V44.8z M243.4,42.2h-0.5V40h0.5V42.2z
		 M250.7,41.2h-0.5V39h0.5V41.2z M243.4,38.6h-0.5v-2.1h0.5V38.6z M250.7,37.6h-0.5v-2.3h0.5V37.6z M243.4,34.9h-0.5v-2.1h0.5V34.9z
		 M250.7,33.9h-0.5v-2.1h0.5V33.9z M243.4,31.3h-0.5V29h0.5V31.3z M250.7,30h-0.5v-2.1h0.5V30z M243.4,27.4h-0.5v-2.1h0.5V27.4z
		 M250.7,26.3h-0.5v-2.1h0.5V26.3z M243.4,23.7h-0.5v-2.1h0.5V23.7z M250.7,22.6h-0.5v-2.1h0.5V22.6z M243.4,20h-0.5v-2.1h0.5V20z
		 M250.7,19h-0.5v-2.1h0.5V19z M243.4,16.4h-0.5v-1.8h0.8V15h-0.3V16.4z M250.7,15.3h-0.5V15h-1.3v-0.5h1.8L250.7,15.3z M247.3,15
		h-2.1v-0.5h2.1V15z"/>
</g>
<g class="st0">
	<path class="st2" d="M261.5,57.1h-2.1v-0.5h2.1V57.1z M257.8,57.1h-2.1v-0.5h2.1V57.1z M254.4,56.9h-0.5v-2.1h0.5V56.9z
		 M261.8,55.8h-0.5v-2.1h0.5V55.8z M254.4,53.2h-0.5v-2.1h0.5V53.2z M261.8,52.2h-0.5V50h0.5V52.2z M254.4,49.5h-0.5v-2.1h0.5V49.5z
		 M261.8,48.5h-0.5v-2.1h0.5V48.5z M254.4,45.8h-0.5v-2.1h0.5V45.8z M261.8,44.8h-0.5v-2.1h0.5V44.8z M254.4,42.2h-0.5V40h0.5V42.2z
		 M261.8,41.2h-0.5V39h0.5V41.2z M254.4,38.5h-0.5v-2.1h0.5V38.5z M261.8,37.5h-0.5v-2.2h0.5V37.5z M254.4,34.8h-0.5v-2.1h0.5V34.8z
		 M261.8,33.8h-0.5v-2.1h0.5V33.8z M254.4,31.1h-0.5V29h0.5V31.1z M261.8,30h-0.5v-2.1h0.5V30z M254.4,27.4h-0.5v-2.1h0.5V27.4z
		 M261.8,26.3h-0.5v-2.1h0.5V26.3z M254.4,23.7h-0.5v-2.1h0.5V23.7z M261.8,22.6h-0.5v-2.1h0.5V22.6z M254.4,20h-0.5v-2.1h0.5V20z
		 M261.8,19h-0.5v-2.1h0.5V19z M254.4,16.4h-0.5v-1.8h0.8V15h-0.3V16.4z M261.8,15.3h-0.5V15h-1.3v-0.5h1.8L261.8,15.3z M258.4,15
		h-2.1v-0.5h2.1V15z"/>
</g>
<g class="st0">
	<path class="st2" d="M272.6,57.1h-2.1v-0.5h2.1V57.1z M268.9,57.1h-2.1v-0.5h2.1V57.1z M265.5,56.9h-0.5v-2.1h0.5V56.9z
		 M272.8,55.8h-0.5v-2.1h0.5V55.8z M265.5,53.2h-0.5v-2.1h0.5V53.2z M272.8,52.2h-0.5V50h0.5V52.2z M265.5,49.5h-0.5v-2.1h0.5V49.5z
		 M272.8,48.5h-0.5v-2.1h0.5V48.5z M265.5,45.8h-0.5v-2.1h0.5V45.8z M272.8,44.8h-0.5v-2.1h0.5V44.8z M265.5,42.2h-0.5V40h0.5V42.2z
		 M272.8,41.2h-0.5V39h0.5V41.2z M265.5,38.5h-0.5v-2.1h0.5V38.5z M272.8,37.5h-0.5v-2.2h0.5V37.5z M265.5,34.9h-0.5v-2.2h0.5V34.9z
		 M272.8,33.9h-0.5v-2.1h0.5V33.9z M265.5,31.3h-0.5V29h0.5V31.3z M272.8,30h-0.5v-2.1h0.5V30z M265.5,27.4h-0.5v-2.1h0.5V27.4z
		 M272.8,26.3h-0.5v-2.1h0.5V26.3z M265.5,23.7h-0.5v-2.1h0.5V23.7z M272.8,22.6h-0.5v-2.1h0.5V22.6z M265.5,20h-0.5v-2.1h0.5V20z
		 M272.8,19h-0.5v-2.1h0.5V19z M265.5,16.4h-0.5v-1.8h0.8V15h-0.3V16.4z M272.8,15.3h-0.5V15H271v-0.5h1.8L272.8,15.3z M269.4,15
		h-2.1v-0.5h2.1V15z"/>
</g>
<path class="st3" d="M279,0c-4,0-7.2,3.2-7.2,7.2s3.2,7.2,7.2,7.2s7.2-3.2,7.2-7.2S283,0,279,0C279,0,279,0,279,0z"/>
<path class="st4" d="M283.9,8.4c0,0.4-0.3,0.8-0.7,0.9c-1.4,0.2-2.7,0.3-4.1,0.2c-1.4,0-2.8-0.1-4.1-0.2c-0.4-0.1-0.8-0.5-0.7-0.9
	V5.7c0-0.4,0.3-0.8,0.7-0.9c0.4-0.1,0.9-0.1,1.3-0.1c0.2,0,0.3,0.1,0.3,0.3v2h2.5h2.5V5c0-0.2,0.1-0.3,0.3-0.3c0,0,0,0,0,0l0,0
	c0.4,0,0.9,0,1.3,0.1c0.4,0.1,0.7,0.5,0.7,0.9L283.9,8.4L283.9,8.4z"/>
<path class="st1" d="M128.4,30.5v29c0,1.4-1.2,2.6-2.6,2.6H78.4c-1.4,0-2.6-1.2-2.6-2.6v-29"/>
<path class="st2" d="M125.8,62.7H78.4c-1.7,0-3.1-1.4-3.1-3.1V12.1c0-1.7,1.4-3.1,3.1-3.1h47.4c1.7,0,3.1,1.4,3.1,3.1c0,0,0,0,0,0
	l0,0v47.4C128.9,61.3,127.5,62.7,125.8,62.7z M78.4,10.1c-1.1,0-2.1,0.9-2.1,2.1c0,0,0,0,0,0l0,0v47.4c0,1.1,0.9,2.1,2.1,2.1l0,0
	h47.4c1.1,0,2.1-0.9,2.1-2.1v0l0,0V12.1c0-1.1-0.9-2.1-2.1-2.1l0,0H78.4z"/>
<path class="st2" d="M89.2,57.2h-7.9V14.5h7.9V57.2z M81.8,56.6h6.8V15.1h-6.8L81.8,56.6z"/>
<path class="st2" d="M100.2,57.2h-7.9V14.5h7.9V57.2z M92.9,56.6h6.8V15.1h-6.8L92.9,56.6z"/>
<path class="st2" d="M111.3,57.2h-7.9V14.5h7.9V57.2z M103.9,56.6h6.8V15.1h-6.8V56.6z"/>
<path class="st2" d="M122.3,57.2h-7.9V14.5h7.9V57.2z M115,56.6h6.8V15.1H115V56.6z"/>
<path class="st1" d="M203.6,30.5v29c0,1.4-1.2,2.6-2.6,2.6h-47.4c-1.4,0-2.6-1.2-2.6-2.6v-29"/>
<path class="st2" d="M201,62.7h-47.4c-1.7,0-3.1-1.4-3.1-3.1v0l0,0V12.1c0-1.7,1.4-3.1,3.1-3.1l0,0H201c1.7,0,3.1,1.4,3.1,3.1
	c0,0,0,0,0,0l0,0v47.4C204.1,61.3,202.7,62.7,201,62.7L201,62.7z M153.6,10.1c-1.1,0-2.1,0.9-2.1,2.1c0,0,0,0,0,0l0,0v47.4
	c0,1.1,0.9,2.1,2.1,2.1l0,0H201c1.1,0,2.1-0.9,2.1-2.1v0l0,0V12.1c0-1.1-0.9-2.1-2.1-2.1l0,0H153.6z"/>
<path class="st2" d="M164.4,57.2h-7.9V14.5h7.9V57.2z M157.1,56.6h6.8V15.1h-6.8V56.6z"/>
<path class="st2" d="M175.5,57.2h-7.9V14.5h7.9V57.2z M168.1,56.6h6.8V15.1h-6.8V56.6z"/>
<path class="st2" d="M186.5,57.2h-7.9V14.5h7.9V57.2z M179.2,56.6h6.8V15.1h-6.8L179.2,56.6z"/>
<path class="st2" d="M197.6,57.2h-7.9V14.5h7.9V57.2z M190.2,56.6h6.8V15.1h-6.8L190.2,56.6z"/>
<circle class="st5" cx="68.7" cy="35.6" r="1.3"/>
<circle class="st5" cx="64.5" cy="35.6" r="1.3"/>
<circle class="st5" cx="60.2" cy="35.6" r="1.3"/>
<circle class="st5" cx="219.1" cy="35.6" r="1.3"/>
<circle class="st5" cx="214.9" cy="35.6" r="1.3"/>
<circle class="st5" cx="210.7" cy="35.6" r="1.3"/>
<path d="M113.2,98.9v-7.2h3.2c0.5,0,1,0,1.5,0.2c0.3,0.1,0.6,0.4,0.8,0.7c0.2,0.3,0.3,0.7,0.3,1.1c0,0.5-0.2,0.9-0.5,1.3
	c-0.4,0.4-1,0.6-1.5,0.7c0.2,0.1,0.4,0.2,0.6,0.4c0.3,0.3,0.6,0.6,0.8,1l1.2,2h-1.2l-1-1.5c-0.3-0.4-0.5-0.8-0.7-1
	c-0.1-0.2-0.3-0.3-0.5-0.5c-0.1-0.1-0.3-0.2-0.4-0.2c-0.2,0-0.4,0-0.5,0h-1.1V99L113.2,98.9z M114.2,94.9h2c0.3,0,0.7,0,1-0.1
	c0.2-0.1,0.4-0.2,0.6-0.4c0.1-0.2,0.2-0.4,0.2-0.6c0-0.3-0.1-0.6-0.4-0.8c-0.3-0.3-0.8-0.4-1.2-0.3h-2.3L114.2,94.9z"/>
<path d="M123.8,97.2l0.9,0.1c-0.1,0.5-0.4,0.9-0.8,1.2c-1,0.7-2.4,0.6-3.3-0.3c-0.5-0.6-0.7-1.3-0.7-2c0-0.7,0.2-1.4,0.7-2
	c0.5-0.5,1.1-0.7,1.8-0.7c0.6,0,1.3,0.2,1.7,0.7c0.5,0.6,0.7,1.3,0.7,2v0.2h-3.9c0,0.5,0.2,0.9,0.5,1.3c0.3,0.3,0.7,0.5,1.1,0.4
	c0.3,0,0.6-0.1,0.8-0.2C123.6,97.9,123.7,97.6,123.8,97.2z M121,95.8h2.9c0-0.4-0.1-0.7-0.3-1c-0.3-0.3-0.7-0.5-1.1-0.5
	c-0.4,0-0.7,0.1-1,0.4C121.2,95,121,95.4,121,95.8z"/>
<path d="M126.7,98.9h-0.8v-7.2h0.9v2.6c0.3-0.5,0.9-0.7,1.4-0.7c0.3,0,0.6,0.1,0.9,0.2c0.3,0.1,0.5,0.3,0.7,0.5
	c0.2,0.3,0.3,0.5,0.4,0.8c0.1,0.3,0.2,0.7,0.2,1c0,0.7-0.2,1.5-0.7,2.1c-0.4,0.5-1,0.7-1.6,0.7c-0.6,0-1.1-0.3-1.4-0.8L126.7,98.9z
	 M126.7,96.3c0,0.5,0.1,0.9,0.2,1.3c0.3,0.6,1.1,0.9,1.7,0.5c0,0,0,0,0,0c0.2-0.1,0.3-0.2,0.4-0.3c0.3-0.4,0.5-1,0.4-1.5
	c0-0.5-0.1-1.1-0.4-1.5c-0.2-0.3-0.6-0.5-1-0.5c-0.4,0-0.8,0.2-1,0.5C126.8,95.3,126.6,95.8,126.7,96.3L126.7,96.3z"/>
<path d="M134.8,98.3c-0.3,0.2-0.6,0.4-0.9,0.6c-0.3,0.1-0.7,0.2-1,0.2c-0.5,0-0.9-0.1-1.3-0.4c-0.3-0.3-0.5-0.7-0.5-1.1
	c0-0.2,0.1-0.5,0.2-0.7c0.1-0.2,0.3-0.4,0.4-0.5c0.2-0.1,0.4-0.2,0.6-0.3c0.3-0.1,0.5-0.1,0.8-0.1c0.5,0,1.1-0.2,1.6-0.3v-0.2
	c0-0.3-0.1-0.6-0.2-0.8c-0.3-0.2-0.6-0.3-1-0.3c-0.3,0-0.6,0.1-0.9,0.2c-0.2,0.2-0.4,0.5-0.4,0.8l-0.9-0.1c0.1-0.3,0.2-0.6,0.4-0.9
	c0.2-0.2,0.5-0.4,0.8-0.5c0.4-0.1,0.8-0.2,1.2-0.2c0.4,0,0.7,0,1.1,0.2c0.2,0.1,0.4,0.2,0.6,0.4c0.1,0.2,0.2,0.4,0.3,0.6
	c0,0.3,0,0.5,0,0.8v1.2c0,0.5,0,1,0.1,1.6c0,0.2,0.1,0.4,0.2,0.6H135C134.9,98.7,134.8,98.5,134.8,98.3z M134.7,96.3
	c-0.5,0.2-0.9,0.3-1.4,0.3c-0.3,0-0.5,0.1-0.8,0.2c-0.1,0.1-0.3,0.2-0.4,0.3c-0.2,0.3-0.1,0.7,0.1,1c0.2,0.2,0.5,0.3,0.8,0.2
	c0.3,0,0.6-0.1,0.9-0.2c0.3-0.1,0.5-0.4,0.6-0.6c0.1-0.3,0.2-0.6,0.1-0.9L134.7,96.3z"/>
<path d="M137,98.9v-7.2h0.9v7.2H137z"/>
<path d="M142.6,98.3c-0.3,0.2-0.6,0.4-0.9,0.6c-0.3,0.1-0.7,0.2-1,0.2c-0.5,0-0.9-0.1-1.3-0.4c-0.3-0.3-0.5-0.7-0.5-1.1
	c0-0.2,0.1-0.5,0.2-0.7c0.1-0.2,0.3-0.4,0.4-0.5c0.2-0.1,0.4-0.2,0.6-0.3c0.3-0.1,0.5-0.1,0.8-0.1c0.5,0,1.1-0.2,1.6-0.3v-0.2
	c0-0.3-0.1-0.6-0.2-0.8c-0.3-0.2-0.6-0.3-1-0.3c-0.3,0-0.6,0.1-0.9,0.2c-0.2,0.2-0.4,0.5-0.4,0.8l-0.9-0.1c0.1-0.3,0.2-0.6,0.4-0.9
	c0.2-0.2,0.5-0.4,0.8-0.5c0.4-0.1,0.8-0.2,1.2-0.2c0.4,0,0.7,0,1.1,0.2c0.2,0.1,0.4,0.2,0.6,0.4c0.1,0.2,0.2,0.4,0.3,0.6
	c0,0.3,0,0.5,0,0.8v1.2c0,0.5,0,1,0.1,1.6c0,0.2,0.1,0.4,0.2,0.6h-0.9C142.6,98.7,142.6,98.5,142.6,98.3z M142.5,96.3
	c-0.5,0.2-0.9,0.3-1.4,0.3c-0.3,0-0.5,0.1-0.8,0.2c-0.1,0.1-0.3,0.2-0.4,0.3c-0.2,0.3-0.1,0.7,0.1,1c0.2,0.2,0.5,0.3,0.8,0.2
	c0.3,0,0.6-0.1,0.9-0.2c0.3-0.1,0.5-0.4,0.6-0.6c0.1-0.3,0.2-0.6,0.1-0.9L142.5,96.3z"/>
<path d="M144.8,98.9v-5.2h0.8v0.7c0.4-0.6,1-0.9,1.6-0.8c0.3,0,0.6,0.1,0.9,0.2c0.2,0.1,0.4,0.2,0.6,0.4c0.1,0.2,0.2,0.4,0.3,0.7
	c0,0.3,0,0.6,0,0.8v3.2H148v-3.2c0-0.3,0-0.5-0.1-0.8c-0.1-0.2-0.2-0.3-0.4-0.4c-0.2-0.1-0.4-0.2-0.6-0.2c-0.4,0-0.7,0.1-1,0.4
	c-0.3,0.4-0.5,0.9-0.4,1.3v2.8L144.8,98.9z"/>
<path d="M153.7,97l0.9,0.1c-0.1,0.5-0.3,1-0.7,1.4c-0.4,0.3-0.9,0.5-1.4,0.5c-0.6,0-1.3-0.2-1.7-0.7c-0.5-0.6-0.7-1.3-0.6-2
	c0-0.5,0.1-1,0.3-1.5c0.2-0.4,0.5-0.7,0.9-0.9c0.4-0.2,0.8-0.3,1.2-0.3c0.5,0,1,0.1,1.4,0.4c0.4,0.3,0.6,0.7,0.7,1.2l-0.9,0.1
	c-0.1-0.3-0.2-0.6-0.4-0.8c-0.2-0.2-0.5-0.3-0.8-0.3c-0.4,0-0.8,0.2-1.1,0.5c-0.3,0.4-0.4,1-0.4,1.5c0,0.5,0.1,1.1,0.4,1.5
	c0.2,0.3,0.6,0.5,1,0.5c0.3,0,0.6-0.1,0.9-0.3C153.5,97.7,153.7,97.4,153.7,97z"/>
<path d="M155.3,92.8v-1h0.9v1H155.3z M155.3,98.9v-5.2h0.9v5.2L155.3,98.9z"/>
<path d="M157.5,98.9v-5.2h0.8v0.7c0.4-0.6,1-0.9,1.6-0.8c0.3,0,0.6,0.1,0.9,0.2c0.2,0.1,0.4,0.2,0.6,0.4c0.1,0.2,0.2,0.4,0.3,0.7
	c0,0.3,0,0.6,0,0.8v3.2h-0.9v-3.2c0-0.3,0-0.5-0.1-0.8c-0.1-0.2-0.2-0.3-0.4-0.4c-0.2-0.1-0.4-0.2-0.6-0.2c-0.4,0-0.7,0.1-1,0.4
	c-0.3,0.4-0.5,0.9-0.4,1.3v2.8L157.5,98.9z"/>
<path d="M162.9,99.3l0.9,0.1c0,0.2,0.1,0.4,0.3,0.6c0.3,0.2,0.6,0.3,0.9,0.2c0.3,0,0.7-0.1,0.9-0.2c0.2-0.2,0.4-0.4,0.4-0.7
	c0.1-0.4,0.1-0.8,0.1-1.1c-0.3,0.4-0.9,0.7-1.4,0.7c-0.6,0-1.3-0.3-1.7-0.8c-0.4-0.5-0.6-1.2-0.6-1.8c0-0.5,0.1-0.9,0.3-1.4
	c0.2-0.4,0.4-0.8,0.8-1c0.4-0.2,0.8-0.3,1.2-0.3c0.6,0,1.2,0.3,1.5,0.7v-0.6h0.8v4.5c0,0.6,0,1.2-0.2,1.7c-0.2,0.3-0.4,0.6-0.8,0.8
	c-0.4,0.2-0.8,0.3-1.3,0.3c-0.5,0-1.1-0.1-1.5-0.4C163.1,100.3,162.9,99.8,162.9,99.3z M163.7,96.2c0,0.5,0.1,1.1,0.4,1.5
	c0.5,0.6,1.3,0.6,1.8,0.2c0.1-0.1,0.1-0.1,0.2-0.2c0.3-0.4,0.5-0.9,0.4-1.5c0-0.5-0.1-1-0.4-1.4c-0.2-0.3-0.6-0.5-1-0.5
	c-0.4,0-0.8,0.2-1,0.5C163.8,95.2,163.6,95.7,163.7,96.2L163.7,96.2z"/>
<path class="st3" d="M128.6,0c-4,0-7.2,3.2-7.2,7.2c0,4,3.2,7.2,7.2,7.2c4,0,7.2-3.2,7.2-7.2S132.5,0,128.6,0
	C128.6,0,128.6,0,128.6,0z"/>
<path class="st4" d="M133.4,8.4c0,0.4-0.3,0.8-0.7,0.9c-1.4,0.2-2.7,0.3-4.1,0.2c-1.4,0-2.8-0.1-4.1-0.2c-0.4-0.1-0.8-0.5-0.7-0.9
	V5.7c0-0.4,0.3-0.8,0.7-0.9c0.4-0.1,0.9-0.1,1.3-0.1c0.2,0,0.3,0.2,0.3,0.3v2h2.5h2.5V5c0-0.2,0.1-0.3,0.3-0.3c0,0,0,0,0,0l0,0
	c0.4,0,0.9,0,1.3,0.1c0.4,0.1,0.7,0.5,0.7,0.9L133.4,8.4L133.4,8.4z"/>
<path class="st3" d="M203.3,0c-4,0-7.2,3.2-7.2,7.2s3.2,7.2,7.2,7.2c4,0,7.2-3.2,7.2-7.2S207.3,0,203.3,0C203.3,0,203.3,0,203.3,0z"
	/>
<path class="st4" d="M208.1,8.4c0,0.4-0.3,0.8-0.7,0.9c-1.4,0.2-2.7,0.3-4.1,0.2c-1.4,0-2.8-0.1-4.1-0.2c-0.4-0.1-0.8-0.5-0.7-0.9
	V5.7c0-0.4,0.3-0.8,0.7-0.9c0.4-0.1,0.9-0.1,1.3-0.1c0.2,0,0.3,0.1,0.3,0.3v2h2.5h2.5V5c0-0.2,0.1-0.3,0.3-0.3c0,0,0,0,0,0l0,0
	c0.4,0,0.9,0,1.3,0.1c0.4,0.1,0.7,0.5,0.7,0.9L208.1,8.4L208.1,8.4z"/>
<rect x="26.8" y="78.7" class="st1" width="225.7" height="1.1"/>
<rect x="101.4" y="68.1" class="st1" width="1.1" height="11.2"/>
<polygon class="st1" points="102,64.7 99.6,69.7 104.3,69.7 "/>
<rect x="26.2" y="68.1" class="st1" width="1" height="11.2"/>
<polygon class="st1" points="26.7,64.7 24.4,69.7 29.1,69.7 "/>
<rect x="177.2" y="68.1" class="st1" width="1.1" height="11.2"/>
<polygon class="st1" points="177.7,64.7 175.4,69.7 180.1,69.7 "/>
<rect x="252" y="68.1" class="st1" width="1.1" height="11.2"/>
<polygon class="st1" points="252.6,64.7 250.2,69.7 254.9,69.7 "/>
<path class="st4" d="M66,73.4h-4.7c-0.5,0-0.8,0.4-0.8,0.8v9.7c0,0.5,0.4,0.8,0.8,0.8h6.3c0.5,0,0.8-0.4,0.8-0.8v-7.6L66,73.4z"/>
<path class="st6" d="M66,74l2,2.3h-1.6c-0.2,0-0.4-0.2-0.4-0.4V74z"/>
<path class="st6" d="M68.1,83.9c0,0.2-0.2,0.4-0.4,0.4h-6.3c-0.2,0-0.4-0.2-0.4-0.4v-9.7c0-0.2,0.2-0.4,0.4-0.4h4.2v2.1
	c0,0.5,0.4,0.8,0.8,0.8h1.7L68.1,83.9z"/>
<path d="M68.1,83.9"/>
<path class="st4" d="M141.2,73.4h-4.6c-0.5,0-0.8,0.4-0.8,0.8v9.7c0,0.5,0.4,0.8,0.8,0.8h6.3c0.5,0,0.8-0.4,0.8-0.8v-7.6L141.2,73.4
	z"/>
<path class="st6" d="M141.2,74l2,2.3h-1.6c-0.2,0-0.4-0.2-0.4-0.4L141.2,74z"/>
<path class="st6" d="M143.3,83.9c0,0.2-0.2,0.4-0.4,0.4h-6.3c-0.2,0-0.4-0.2-0.4-0.4v-9.7c0-0.2,0.2-0.4,0.4-0.4h4.2v2.1
	c0,0.5,0.4,0.8,0.8,0.8h1.7V83.9z"/>
<path d="M143.3,83.9"/>
<path class="st4" d="M216.5,73.4h-4.6c-0.5,0-0.8,0.4-0.8,0.8v9.7c0,0.5,0.4,0.8,0.8,0.8h6.3c0.5,0,0.8-0.4,0.8-0.8v-7.6L216.5,73.4
	z"/>
<path class="st6" d="M216.5,74l2,2.3h-1.6c-0.2,0-0.4-0.2-0.4-0.4L216.5,74z"/>
<path class="st6" d="M218.6,83.9c0,0.2-0.2,0.4-0.4,0.4h-6.3c-0.2,0-0.4-0.2-0.4-0.4v-9.7c0-0.2,0.2-0.4,0.4-0.4h4.2v2.1
	c0,0.5,0.4,0.8,0.8,0.8h1.7L218.6,83.9z"/>
<path d="M218.6,83.9"/>
</svg>
